<?xml version="1.0" standalone="no"?>
<!DOCTYPE svg PUBLIC "-//W3C//DTD SVG 20010904//EN"
 "http://www.w3.org/TR/2001/REC-SVG-20010904/DTD/svg10.dtd">
<svg version="1.0" xmlns="http://www.w3.org/2000/svg"
 width="700.000000pt" height="700.000000pt" viewBox="0 0 700.000000 700.000000"
 preserveAspectRatio="xMidYMid meet">
<metadata>
Created by potrace 1.11, written by Peter Selinger 2001-2013
</metadata>
<g transform="translate(0.000000,700.000000) scale(0.100000,-0.100000)"
fill="#000000" stroke="none">
<path d="M3200 6974 c-27 -13 -133 -22 -385 -29 -245 -8 -365 -31 -365 -71 0
-36 116 -106 287 -173 81 -33 81 -33 70 -59 -64 -145 -182 -300 -301 -394
-120 -95 -326 -184 -496 -214 -14 -3 -41 -9 -60 -14 -19 -5 -50 -12 -69 -15
-19 -3 -37 -8 -41 -10 -3 -2 -19 -6 -34 -9 -48 -9 -140 -37 -200 -63 -174 -73
-297 -201 -375 -388 -38 -90 -47 -130 -32 -139 21 -13 11 -43 -18 -56 -16 -6
-60 -12 -98 -13 -64 -2 -69 -4 -59 -19 6 -10 14 -18 18 -18 4 0 12 -10 19 -21
11 -21 10 -21 -45 -15 -62 8 -66 4 -41 -44 15 -29 14 -31 -22 -72 -21 -24 -46
-49 -55 -56 -9 -7 -23 -18 -30 -25 -23 -23 -120 -74 -211 -111 -158 -65 -214
-117 -237 -219 -6 -28 -14 -59 -16 -68 -3 -9 -19 -20 -37 -23 -42 -8 -107 -52
-107 -72 0 -13 4 -12 26 5 36 28 55 13 93 -69 35 -76 35 -74 18 -92 -24 -26
-95 -134 -121 -186 -49 -97 -46 -143 17 -239 6 -9 22 -7 67 9 57 21 61 21 94
5 19 -9 42 -27 51 -41 42 -63 -45 -93 -210 -73 -129 16 -163 18 -169 8 -9 -14
27 -45 119 -102 68 -42 87 -49 130 -49 63 0 86 15 78 53 -3 15 -9 27 -14 27
-5 0 -9 7 -9 15 0 8 9 15 20 15 11 0 20 -4 20 -9 0 -5 24 -9 53 -8 47 1 183
-10 232 -19 11 -2 42 -6 70 -10 109 -14 265 -43 284 -54 54 -28 12 -164 -58
-188 -41 -14 -74 12 -99 81 l-20 52 -114 -1 c-111 -1 -234 -21 -301 -49 -36
-15 -77 -58 -77 -79 0 -19 -17 -29 -32 -20 -7 5 -5 11 7 21 17 12 15 13 -21
14 -57 2 -87 -2 -107 -13 -18 -9 -18 -11 -2 -28 9 -10 39 -27 66 -36 53 -20
57 -25 33 -49 -13 -12 -36 -15 -111 -14 -105 1 -118 -5 -129 -57 l-6 -31 64
-12 c110 -21 276 -84 293 -111 11 -19 21 -10 19 18 -5 106 71 215 173 247 48
15 170 21 218 11 121 -26 141 -33 169 -61 23 -23 9 -45 -43 -67 -49 -21 -61
-24 -131 -37 -37 -7 -40 -9 -15 -11 125 -8 209 -49 200 -98 -2 -9 -4 -19 -4
-23 -2 -16 -73 -80 -119 -108 -57 -36 -60 -42 -35 -62 74 -62 38 -202 -93
-368 l-64 -81 6 -54 c12 -103 -8 -142 -80 -153 -70 -10 -109 -26 -146 -59 -43
-39 -57 -68 -41 -87 21 -27 17 -74 -16 -172 -56 -165 -51 -258 20 -389 38 -69
56 -92 128 -169 l45 -50 26 26 c28 28 72 42 163 52 69 7 84 17 64 41 -11 13
-5 12 29 -5 23 -12 59 -24 80 -27 32 -4 42 -1 65 22 15 15 27 33 27 40 0 7 10
14 22 16 24 3 37 28 15 28 -9 0 -18 -6 -21 -12 -3 -7 -3 -2 0 12 4 25 12 113
13 163 1 15 4 27 9 27 9 0 62 -123 62 -147 1 -16 3 -15 20 6 11 13 20 29 20
36 0 7 9 24 20 38 l21 26 -31 60 c-38 77 -39 109 0 146 23 22 38 28 68 27 21
-1 47 5 58 13 16 12 17 17 6 34 -7 12 -8 21 -2 21 5 0 54 44 108 98 124 123
167 201 167 302 -1 71 -28 142 -71 183 -29 27 -30 51 -4 120 32 85 84 99 149
38 17 -16 31 -28 31 -26 0 2 -5 16 -11 32 -17 45 -13 113 8 134 16 16 54 25
90 20 6 0 20 -17 32 -36 38 -65 85 -71 286 -39 118 20 209 24 249 13 48 -14
94 -51 112 -92 13 -28 29 -43 63 -58 25 -11 60 -31 77 -44 l33 -25 26 26 c24
23 32 26 78 21 67 -7 110 -23 172 -62 116 -75 140 -148 64 -194 -18 -11 -50
-23 -72 -27 l-40 -6 52 -25 c59 -28 85 -70 75 -121 -8 -40 7 -43 91 -21 94 25
113 17 105 -41 -2 -20 -43 -62 -118 -122 -34 -27 -59 -54 -56 -60 8 -12 -27
-39 -44 -33 -15 5 -81 -60 -120 -118 -30 -44 -37 -122 -20 -199 15 -63 2 -80
-48 -66 -56 15 -83 -22 -52 -72 10 -15 9 -35 -5 -100 -33 -160 -97 -249 -184
-257 -31 -3 -62 0 -85 10 l-36 15 21 -59 c29 -78 18 -90 -52 -55 -58 30 -66
20 -28 -35 42 -62 53 -120 48 -240 -2 -39 -23 -63 -50 -54 -20 6 -121 146
-121 167 0 4 -9 22 -20 40 l-21 33 7 -50 c7 -60 -10 -84 -45 -66 -39 21 -68
14 -80 -20 -6 -18 -11 -37 -11 -43 0 -6 31 -22 70 -35 76 -26 130 -55 130 -70
0 -20 -81 -35 -255 -46 -171 -11 -338 -28 -400 -40 -11 -2 -33 -7 -50 -10 -35
-7 -85 -25 -85 -32 0 -15 60 -84 98 -113 161 -124 497 -269 847 -365 55 -15
145 -40 200 -55 84 -24 128 -34 182 -42 5 -1 24 -5 43 -10 19 -4 51 -11 70
-14 19 -3 46 -7 60 -9 139 -24 335 -38 525 -39 252 -1 325 4 485 36 125 24
319 106 305 128 -8 13 13 56 66 137 58 86 82 133 75 140 -8 8 -63 -16 -135
-59 -34 -21 -65 -38 -68 -38 -6 0 26 50 44 68 7 7 18 21 25 31 7 10 32 30 56
45 47 29 60 54 87 156 19 73 25 86 34 73 16 -24 55 -42 71 -33 10 5 41 52 70
104 51 92 108 171 117 162 2 -2 7 -19 9 -38 11 -78 28 -73 33 9 1 26 4 49 6
51 7 8 109 6 195 -3 47 -4 96 -8 110 -8 37 0 222 13 245 17 11 2 42 7 68 10
27 4 59 9 70 12 108 21 135 23 165 15 39 -12 35 -11 69 -11 37 0 103 -71 103
-110 0 -34 14 -39 29 -12 6 11 35 36 66 57 105 73 84 117 -114 230 l-84 48 34
18 c44 24 106 24 144 1 17 -10 50 -40 74 -65 33 -34 48 -44 57 -36 20 17 32
118 38 323 l4 139 82 81 c167 168 188 253 76 316 -28 17 -59 30 -68 30 -9 0
-20 5 -24 12 -12 20 71 84 215 166 163 92 201 123 185 149 -16 26 -92 42 -234
49 -118 6 -127 8 -170 37 -77 53 -148 131 -156 171 -7 41 3 59 50 83 52 27
234 24 371 -7 57 -12 184 -58 203 -73 6 -5 12 -6 12 -3 0 11 115 -72 142 -102
33 -37 51 -87 50 -132 -2 -34 0 -38 19 -33 16 4 20 2 17 -8 -3 -8 -14 -13 -26
-12 -11 1 -23 -4 -26 -13 -5 -12 0 -15 22 -12 23 2 33 15 65 78 70 139 42 183
-173 270 -66 27 -90 46 -90 73 0 27 54 75 138 122 39 22 72 43 72 47 0 18
-104 -34 -176 -86 -89 -65 -151 -87 -256 -88 -133 -1 -154 6 -223 75 l-62 62
39 -4 c22 -2 59 4 84 14 50 19 139 100 128 116 -4 7 -29 -12 -61 -45 -30 -31
-59 -56 -65 -56 -23 0 -47 22 -62 60 -26 64 -21 88 27 135 41 41 52 46 231
110 71 26 37 37 -43 14 -206 -59 -333 -77 -364 -50 -13 10 -17 30 -17 82 0 37
-5 79 -12 93 -13 29 -98 76 -138 76 -66 0 -214 259 -236 410 -12 87 -13 88
-54 95 -22 4 -56 6 -77 5 -77 -4 -81 -2 -92 35 -5 20 -8 46 -6 58 2 12 6 45 9
72 7 56 8 63 36 201 23 115 38 134 107 134 62 0 148 -30 311 -110 78 -38 142
-66 142 -63 0 9 -48 73 -83 111 -29 30 -77 44 -77 22 0 -18 -30 -11 -30 8 -4
123 -29 278 -67 406 -3 12 -1 16 6 12 6 -4 11 -2 11 3 0 6 -6 11 -14 11 -7 0
-19 20 -26 45 -12 42 -15 45 -69 61 -143 41 -165 119 -67 251 23 32 56 71 72
87 40 39 64 77 64 102 0 18 -17 30 -86 63 -97 47 -172 112 -199 171 -10 22
-22 40 -27 40 -5 0 -28 -13 -51 -29 -55 -37 -107 -53 -148 -46 -74 13 -180
111 -184 168 -3 61 -65 156 -165 257 -81 81 -228 201 -320 261 -23 15 -23 18
-12 56 18 59 15 107 -7 127 -12 11 -56 23 -117 32 -154 23 -199 41 -282 118
l-43 39 -22 -21 c-36 -33 -95 -53 -161 -54 -204 -2 -524 181 -716 408 -33 38
-37 40 -60 28z m994 -450 c21 -21 20 -44 -2 -44 -28 0 -56 25 -49 44 8 20 31
21 51 0z m-556 -145 c4 -35 -41 -57 -110 -53 -57 3 -77 16 -59 37 10 13 26 18
101 33 13 3 27 7 29 10 13 12 36 -4 39 -27z m922 -133 c0 -3 -4 -8 -10 -11 -5
-3 -10 -1 -10 4 0 6 5 11 10 11 6 0 10 -2 10 -4z m570 -699 c8 -7 28 -27 43
-46 l29 -35 -34 -17 c-64 -34 -82 -23 -79 49 2 63 11 74 41 49z m-341 -59 c33
-34 56 -90 47 -113 -4 -12 -10 -13 -31 -3 -14 6 -25 16 -25 23 0 6 -14 24 -31
41 -17 16 -35 37 -40 47 -25 46 36 50 80 5z m365 -87 c8 -13 -20 -45 -32 -37
-20 12 -14 46 7 46 11 0 22 -4 25 -9z m-178 -84 c72 4 75 3 104 -26 17 -16 31
-40 32 -53 0 -13 2 -36 3 -53 2 -16 -2 -36 -7 -42 -25 -31 -149 -2 -190 43
-23 26 -45 84 -42 112 3 35 3 37 14 26 7 -7 41 -9 86 -7z m161 -224 c-9 -9
-19 -14 -22 -11 -3 3 2 13 11 22 9 9 19 14 22 11 3 -3 -2 -13 -11 -22z m-3760
-53 c171 -84 237 -240 130 -307 -23 -14 -70 -54 -105 -87 -77 -73 -81 -72
-139 45 -32 63 -43 77 -43 57 0 -51 -38 -147 -73 -188 -36 -43 -62 -118 -52
-151 5 -14 0 -20 -18 -24 -41 -11 -61 -13 -102 -14 -55 -1 -35 -14 67 -42 104
-28 108 -25 -93 -92 -266 -90 -376 -98 -441 -34 -20 21 -33 27 -36 19 -2 -7
-11 -20 -20 -29 -16 -16 -17 -15 -20 11 -12 98 182 576 273 672 43 45 52 49
71 36 33 -21 57 -159 34 -187 -27 -33 2 -24 111 34 123 64 216 96 254 87 23
-6 23 -6 -11 79 -32 77 -34 88 -22 113 28 58 119 58 235 2z m416 -387 c27 -52
52 -240 36 -260 -35 -41 -74 4 -114 131 -27 85 -30 100 -17 92 5 -3 23 11 41
29 18 19 34 35 37 35 2 0 10 -12 17 -27z m-128 -93 c13 -26 11 -40 -6 -40 -16
0 -39 33 -39 55 0 32 25 23 45 -15z m-1215 -74 c-12 -20 -24 -36 -26 -36 -2 0
-4 14 -4 30 0 23 6 33 23 39 31 12 32 7 7 -33z m1187 -3 c12 -15 25 -41 29
-57 8 -37 -14 -57 -89 -81 -97 -32 -99 -58 -7 -135 l59 -49 -37 -12 c-94 -31
-198 -7 -223 52 -38 94 30 248 136 303 44 23 105 14 132 -21z m4192 -27 c10
-12 8 -13 -9 -9 -25 7 -37 23 -17 23 8 0 20 -6 26 -14z m-5415 -111 c-6 -16
-24 -21 -24 -7 0 11 11 22 21 22 5 0 6 -7 3 -15z m1437 -87 c3 -28 -2 -79 -11
-101 l-9 -22 -7 23 c-4 15 -12 21 -22 17 -34 -13 -59 54 -30 83 16 16 78 16
79 0z m-678 -21 c3 -7 -1 -28 -9 -46 -14 -32 -15 -33 -61 -27 -60 7 -71 24
-36 53 38 31 97 42 106 20z m756 -31 c17 -21 9 -77 -12 -90 -15 -9 -21 -7 -32
8 -13 17 -12 23 5 51 11 18 17 35 13 38 -3 4 -2 7 4 7 6 0 16 -6 22 -14z
m-1519 -16 c0 -5 -7 -7 -15 -4 -8 4 -12 10 -9 15 6 11 24 2 24 -11z m985 -109
c8 -15 -13 -24 -41 -17 -21 6 -23 9 -14 26 9 16 15 18 30 10 10 -6 21 -14 25
-19z m340 -40 c17 -7 13 -10 -23 -21 -31 -10 -46 -10 -53 -3 -27 27 27 43 76
24z m-634 -32 c15 -20 20 -43 19 -84 0 -3 7 -19 15 -35 15 -29 15 -31 -10 -40
-23 -9 -159 -7 -195 3 -8 2 -28 7 -45 12 -65 17 -135 64 -135 91 0 37 62 61
180 71 41 3 76 6 78 8 1 1 19 1 39 -1 24 -1 42 -10 54 -25z m469 23 c0 -30
-92 -60 -121 -41 -24 16 23 45 75 47 25 1 46 -2 46 -6z m3745 -58 c25 -16 95
-114 95 -133 0 -19 -132 0 -182 25 -36 19 -35 44 2 77 17 15 30 32 30 37 0 15
28 12 55 -6z m-3350 -33 c-14 -61 -78 -111 -142 -111 -35 0 -66 24 -61 48 5
26 56 56 96 57 25 0 45 8 60 23 29 29 56 19 47 -17z m-471 -16 c25 -24 46 -63
46 -89 0 -17 -38 -33 -70 -30 -14 2 -47 5 -75 7 -64 6 -85 15 -95 41 -27 73
129 131 194 71z m70 -25 c-6 -5 -24 21 -24 34 0 6 6 1 14 -10 8 -10 12 -21 10
-24z m174 5 c-6 -14 -15 -25 -20 -25 -4 0 -8 11 -8 25 0 18 5 25 20 25 17 0
18 -3 8 -25z m3517 -116 c25 -12 45 -23 45 -26 0 -14 -36 -70 -67 -104 -61
-67 -142 -98 -196 -75 -36 15 -99 75 -92 86 4 6 16 10 28 10 31 1 61 19 111
68 68 66 101 74 171 41z m-3891 -20 c-10 -16 -24 -9 -24 12 0 18 2 19 15 9 8
-7 12 -16 9 -21z m692 -6 c-3 -3 -17 -2 -32 1 -28 8 -23 21 11 28 19 3 34 -17
21 -29z m-711 -19 c20 -43 10 -59 -45 -74 -85 -23 -114 29 -48 85 43 36 72 33
93 -11z m490 15 c5 -15 0 -28 -16 -44 -36 -34 -62 -39 -92 -15 -31 25 -27 43
16 64 47 23 84 21 92 -5z m-262 -3 c13 -32 -34 -134 -80 -178 -30 -29 -79 -51
-93 -43 -5 3 -9 -34 -9 -82 -1 -49 -7 -111 -15 -138 -44 -166 -127 -221 -151
-99 -7 40 -8 222 0 234 3 5 -3 27 -14 48 -28 54 -19 79 33 93 151 41 220 77
273 144 30 37 47 44 56 21z m109 -38 c11 -32 3 -73 -16 -76 -28 -6 -36 17 -18
55 17 35 27 41 34 21z m-267 -18 c3 -5 -1 -10 -9 -10 -8 0 -18 5 -21 10 -3 6
1 10 9 10 8 0 18 -4 21 -10z m758 -44 c60 -26 50 -45 -63 -126 -41 -29 -88
-66 -105 -81 -53 -48 -102 -43 -168 20 -29 27 -63 51 -76 53 -23 3 -20 7 33
59 45 44 69 60 114 73 96 27 203 28 265 2z m-506 -103 c5 -14 -40 -28 -57 -18
-8 5 -8 11 1 21 14 17 51 15 56 -3z m-136 -16 c-7 -7 -14 -8 -21 -1 -6 6 -2
10 12 11 16 2 18 -1 9 -10z m788 -23 c99 -74 192 -216 246 -375 19 -56 21 -70
10 -95 -29 -69 -129 -75 -337 -20 -73 20 -190 51 -261 70 -114 31 -245 57
-348 69 -20 3 -43 -1 -54 -9 -21 -16 -49 -4 -67 29 -21 38 -35 147 -26 212 10
74 34 109 76 113 26 3 40 -5 78 -41 l47 -44 -19 -28 -19 -28 52 35 c28 20 64
38 78 42 41 10 73 -16 81 -64 l7 -40 33 29 c64 57 200 80 187 32 -3 -11 -16
-30 -29 -42 l-24 -23 72 -21 c40 -12 75 -20 77 -18 2 1 -4 14 -13 28 -9 14
-20 48 -23 74 -5 42 -3 52 17 68 12 10 36 32 54 49 36 37 53 36 105 -2z m3651
-194 c0 -5 -2 -10 -4 -10 -3 0 -8 5 -11 10 -3 6 -1 10 4 10 6 0 11 -4 11 -10z
m-995 -19 c3 -5 1 -12 -5 -16 -5 -3 -10 1 -10 9 0 18 6 21 15 7z m1038 -56
c-3 -9 -8 -14 -10 -11 -3 3 -2 9 2 15 9 16 15 13 8 -4z m-188 -15 c3 -5 -1
-10 -9 -10 -9 0 -16 5 -16 10 0 6 4 10 9 10 6 0 13 -4 16 -10z m-660 -49 c-3
-6 -11 -11 -17 -11 -6 0 -6 6 2 15 14 17 26 13 15 -4z m-4068 -53 c4 -18 7
-41 6 -50 0 -10 -1 -33 -2 -52 -1 -24 -10 -44 -32 -66 -37 -37 -70 -37 -79 0
-15 57 52 199 93 200 4 0 11 -15 14 -32z m360 16 c-3 -3 -12 -4 -19 -1 -8 3
-5 6 6 6 11 1 17 -2 13 -5z m4733 -90 c0 -8 -8 -14 -18 -14 -23 0 -32 8 -26
25 7 17 44 7 44 -11z m36 -58 c3 -8 4 -25 2 -37 -3 -22 -4 -22 -20 -5 -10 10
-18 26 -18 37 0 22 28 26 36 5z m-1362 -42 c11 -29 6 -44 -14 -44 -25 0 -44
32 -28 48 17 17 35 15 42 -4z m1180 -19 c3 -8 1 -15 -4 -15 -6 0 -10 7 -10 15
0 8 2 15 4 15 2 0 6 -7 10 -15z m-1371 -51 c-4 -10 -9 -12 -15 -6 -12 12 -1
35 12 27 5 -3 6 -13 3 -21z m188 -20 c22 -20 9 -54 -21 -54 -25 0 -33 15 -26
46 7 28 22 31 47 8z m-136 -45 c0 -14 -7 -25 -16 -27 -12 -2 -18 6 -21 31 -3
31 -2 34 17 27 12 -4 20 -16 20 -31z m62 -56 c-9 -29 -15 -33 -43 -33 -43 0
-51 15 -19 36 14 9 25 22 25 30 0 7 8 17 18 23 23 13 32 -13 19 -56z m744
-104 c54 -211 73 -266 135 -395 94 -193 207 -292 345 -302 l68 -5 -16 -24
c-29 -44 -97 -83 -148 -85 -44 -1 -45 -2 -23 -14 23 -13 22 -13 -11 -14 -24 0
-32 4 -28 14 4 10 -12 23 -51 42 -144 70 -273 268 -322 492 -16 70 -18 113
-14 222 2 74 6 151 8 170 2 19 4 41 5 49 2 31 14 -3 52 -150z m-661 79 c0 -23
-4 -28 -25 -28 -30 0 -35 33 -8 62 20 22 33 9 33 -34z m50 28 c0 -11 -19 -15
-25 -6 -3 5 1 10 9 10 9 0 16 -2 16 -4z m1111 -54 c4 -18 3 -33 -2 -33 -5 -1
-15 -2 -21 -3 -29 -5 -38 15 -22 46 19 36 36 32 45 -10z m-1327 -74 c14 -87
13 -99 -6 -109 -20 -11 -30 3 -32 42 -2 30 -20 23 -29 -11 -4 -16 -11 -30 -16
-30 -18 0 -19 15 -4 41 16 27 26 33 46 30 4 0 7 8 7 18 0 26 10 51 21 51 4 0
10 -15 13 -32z m88 0 c-6 -6 -16 -7 -22 -3 -9 6 -9 9 1 16 17 10 34 0 21 -13z
m-45 -70 c-3 -8 -6 -5 -6 6 -1 11 2 17 5 13 3 -3 4 -12 1 -19z m38 12 c3 -5 2
-10 -4 -10 -5 0 -13 5 -16 10 -3 6 -2 10 4 10 5 0 13 -4 16 -10z m-381 -305
c-4 -8 -10 -15 -15 -15 -4 0 -6 7 -3 15 4 8 10 15 15 15 4 0 6 -7 3 -15z
m-120 -101 c3 -9 6 -28 6 -43 0 -82 -120 -119 -199 -60 -43 31 -44 45 -9 70
66 47 189 67 202 33z m-2884 -104 c6 -11 8 -20 5 -20 -14 0 -45 21 -45 30 0
18 29 10 40 -10z m2643 -12 c18 -13 45 -30 62 -39 57 -31 70 -60 73 -172 5
-116 -7 -167 -45 -196 -33 -27 -49 -26 -68 3 -17 26 -23 120 -11 174 10 43 -9
42 -35 -3 -18 -30 -24 -33 -41 -24 -20 11 -63 96 -88 173 -10 32 -10 40 1 47
8 5 17 9 22 9 9 0 38 -29 60 -60 9 -13 19 -22 22 -19 2 3 6 33 7 67 2 34 5 62
6 62 2 0 18 -10 35 -22z m381 7 c-4 -8 -16 -15 -28 -15 -20 0 -20 1 4 14 14 8
26 14 27 15 1 1 0 -6 -3 -14z m-131 -178 c90 -58 99 -89 30 -101 -35 -6 -41
-3 -75 35 -35 38 -48 76 -31 92 11 12 23 8 76 -26z m-3028 -27 c-3 -5 -13 -10
-21 -10 -8 0 -12 5 -9 10 3 6 13 10 21 10 8 0 12 -4 9 -10z m2667 -34 c10 -11
18 -25 18 -30 0 -6 -14 4 -31 22 -16 18 -26 38 -22 44 5 9 8 8 11 -2 3 -8 13
-23 24 -34z m-2792 -36 c6 -12 9 -28 6 -38 -3 -9 -10 -36 -16 -59 -6 -24 -16
-43 -21 -43 -6 0 -26 15 -45 34 -41 41 -46 85 -11 109 32 23 74 21 87 -3z
m1870 -14 c0 -3 -4 -8 -10 -11 -5 -3 -10 -1 -10 4 0 6 5 11 10 11 6 0 10 -2
10 -4z m-114 -234 c-13 -13 -14 -10 -6 24 5 21 10 44 11 49 1 6 4 -5 6 -24 3
-21 -1 -39 -11 -49z m3144 -41 c0 -36 -45 -60 -84 -45 -26 10 -19 30 22 63 34
29 38 30 50 14 6 -9 12 -23 12 -32z m-3154 -86 c9 -19 9 -27 -1 -35 -20 -17
-48 16 -35 41 14 25 23 24 36 -6z m1846 -577 c-6 -6 -19 -7 -29 -3 -17 7 -16
8 5 18 12 5 23 15 23 21 1 6 3 3 6 -8 3 -10 0 -23 -5 -28z m-122 -103 c11 -13
10 -14 -4 -9 -9 3 -16 10 -16 15 0 13 6 11 20 -6z m-1430 -14 c0 -5 -9 -11
-20 -14 -22 -6 -26 3 -8 21 11 11 28 7 28 -7z"/>
<path d="M507 3172 c-13 -19 -75 -48 -147 -67 -36 -10 -87 -28 -114 -41 -84
-41 -129 -31 -186 42 -45 57 -61 63 -55 21 2 -18 9 -70 15 -117 6 -47 15 -107
20 -135 5 -27 12 -65 15 -84 11 -62 56 -185 83 -226 17 -24 42 -45 65 -54 34
-12 41 -12 77 4 51 23 112 88 138 149 18 41 113 176 199 286 18 23 21 29 7 17
-21 -17 -22 -17 -46 15 -26 36 -45 88 -56 158 -5 28 -11 40 -15 32z m19 -168
c-4 -12 -10 -14 -17 -7 -5 5 -7 17 -3 27 4 12 10 14 17 7 5 -5 7 -17 3 -27z
m-68 -86 c-7 -4 -21 0 -30 9 -28 26 -21 36 12 17 20 -12 26 -20 18 -26z m73
-6 c-15 -4 -33 17 -25 30 3 4 13 0 22 -10 14 -14 15 -18 3 -20z m-165 -172 c0
-39 -11 -51 -51 -55 -24 -2 -97 29 -109 47 -20 28 -11 43 32 56 93 29 127 16
128 -48z m-10 -95 c3 -16 2 -35 -1 -43 -5 -13 -8 -12 -25 3 -24 22 -25 33 -3
57 19 21 22 20 29 -17z"/>
<path d="M3076 2084 c-5 -14 -4 -15 9 -4 17 14 19 20 6 20 -5 0 -12 -7 -15
-16z"/>
</g>
</svg>
