<?xml version="1.0" encoding="utf-8"?><svg viewBox="0 0 82 78" xmlns="http://www.w3.org/2000/svg" xmlns:xlink="http://www.w3.org/1999/xlink"><style>:root>svg{display:none}:root>svg:target{display:block}</style><svg fill="none" viewBox="0 0 24 24" id="eu" xmlns="http://www.w3.org/2000/svg"><path d="M.88 7.376c-.164.33-.274.66-.385.991h1.872l-1.486-.99zm22.24 9.248c.164-.33.274-.66.385-1.046h-1.927l1.541 1.046zM3.468 20.477c1.376 1.376 3.027 2.422 4.954 3.028v-6.276l-4.954 3.248zM8.367.495a12.44 12.44 0 00-4.954 3.028l4.954 3.303V.496zM23.45 8.367c-.11-.33-.22-.66-.386-.99l-1.541.99h1.927zm-7.872 15.138a12.44 12.44 0 004.954-3.028l-4.954-3.303v6.33zM.495 15.633c.11.33.22.716.386 1.046l1.541-1.046H.495zm20.037-12.11C19.156 2.147 17.505 1.1 15.578.495v6.33l4.954-3.302z" fill="#01247D"/><path d="M23.835 14.092h-9.743v9.743c.495-.11.99-.22 1.486-.386v-6.275l4.954 3.303c.55-.55 1.046-1.156 1.486-1.817l-4.569-3.027h2.863l2.477 1.651c.11-.22.165-.385.275-.605l-1.541-1.046h1.927c.165-.495.275-.99.385-1.541zM8.367.495v6.33L3.413 3.524c-.55.55-1.046 1.156-1.486 1.816L6.55 8.422H3.688L1.156 6.716l-.33.66 1.541.991H.495C.33 8.862.22 9.357.11 9.853h9.743V.11c-.495.165-.99.275-1.486.385zM.165 14.092c.11.495.22.99.385 1.486h1.927L.936 16.624c.275.716.66 1.376 1.046 1.982l4.568-3.028h1.872v.66l-5.45 3.634c.166.22.33.385.551.605l4.954-3.303v6.276c.495.165.99.275 1.486.385v-9.743H.165zM23.45 8.367h-1.872l1.541-.99a9.075 9.075 0 00-1.1-2.038l-4.625 3.083h-1.761v-.716l5.45-3.633a4.962 4.962 0 01-.496-.55l-4.954 3.303V.496A14.44 14.44 0 0014.147.11v9.743h9.743c-.165-.495-.275-.99-.44-1.486z" fill="#fff"/><path d="M23.835 9.908h-9.743V.165A12.88 12.88 0 0012 0c-.716 0-1.431.055-2.092.165v9.743H.165C.055 10.568 0 11.284 0 12c0 .716.055 1.431.165 2.092h9.743v9.743c.66.11 1.376.165 2.092.165.716 0 1.431-.055 2.092-.165v-9.743h9.743c.11-.66.165-1.376.165-2.092 0-.716-.055-1.431-.165-2.092z" fill="#CF142B"/><path d="M17.505 15.633l4.569 3.028c.275-.44.55-.881.77-1.377l-2.477-1.65h-2.862zm-1.927-7.266h1.762l4.623-3.083a7.163 7.163 0 00-.99-1.266l-5.45 3.633v.716h.055zm-7.211 7.266H6.495l-4.568 3.028c.275.44.605.88.935 1.266l5.45-3.633v-.66h.055zM6.605 8.367L1.982 5.284c-.276.44-.55.881-.771 1.376l2.532 1.707h2.862z" fill="#CF142B"/></svg><svg fill="none" viewBox="0 0 24 24" id="facebook" xmlns="http://www.w3.org/2000/svg"><path fill-rule="evenodd" clip-rule="evenodd" d="M12 0C5.373 0 0 5.373 0 12s5.373 12 12 12 12-5.373 12-12S18.627 0 12 0zm1.25 12.527v6.529h-2.7v-6.529H9.2v-2.25h1.35v-1.35C10.55 7.09 11.312 6 13.476 6h1.802v2.25h-1.127c-.842 0-.898.314-.898.901l-.003 1.126h2.04l-.238 2.25H13.25z" fill="#fff"/></svg><svg fill="none" viewBox="0 0 24 24" id="insta" xmlns="http://www.w3.org/2000/svg"><path fill-rule="evenodd" clip-rule="evenodd" d="M12 0C5.373 0 0 5.373 0 12s5.373 12 12 12 12-5.373 12-12S18.627 0 12 0zM9.362 5.639c.682-.031.9-.039 2.639-.039h-.002c1.738 0 1.956.008 2.638.039.682.03 1.147.139 1.555.297.421.163.777.382 1.133.738s.575.713.739 1.134c.157.407.265.872.297 1.553.031.683.039.9.039 2.64 0 1.737-.008 1.955-.039 2.638-.032.68-.14 1.146-.297 1.553-.164.42-.383.778-.739 1.134a3.132 3.132 0 01-1.133.738c-.407.158-.872.266-1.554.297-.682.032-.9.04-2.638.04s-1.956-.008-2.639-.04c-.681-.03-1.146-.139-1.553-.297a3.134 3.134 0 01-1.134-.738 3.136 3.136 0 01-.738-1.134c-.158-.407-.266-.872-.297-1.554-.031-.682-.039-.9-.039-2.638s.008-1.956.039-2.639c.03-.681.138-1.146.297-1.553.164-.421.383-.778.739-1.134a3.134 3.134 0 011.133-.738c.407-.158.872-.266 1.554-.297z" fill="#fff"/><path fill-rule="evenodd" clip-rule="evenodd" d="M11.427 6.753H12c1.708 0 1.911.006 2.586.037.624.029.963.133 1.188.22.299.117.512.255.736.48.224.223.362.437.479.735.087.226.192.564.22 1.188.03.675.037.877.037 2.586 0 1.708-.006 1.91-.037 2.585-.029.624-.133.963-.22 1.188a1.978 1.978 0 01-.48.735 1.979 1.979 0 01-.735.479c-.225.088-.564.192-1.188.22-.675.031-.878.038-2.586.038-1.71 0-1.912-.007-2.587-.038-.624-.028-.962-.133-1.188-.22a1.982 1.982 0 01-.736-.479 1.984 1.984 0 01-.479-.736c-.087-.225-.192-.564-.22-1.188-.031-.674-.037-.877-.037-2.586 0-1.71.006-1.91.037-2.585.028-.624.133-.963.22-1.189.116-.298.255-.512.479-.736.224-.224.437-.362.736-.479.226-.088.564-.192 1.188-.22.59-.027.82-.035 2.013-.036v.001zm3.99 1.063a.768.768 0 100 1.536.768.768 0 000-1.536zM8.714 12a3.287 3.287 0 116.574 0 3.287 3.287 0 01-6.574 0z" fill="#fff"/><path d="M12 9.867a2.133 2.133 0 110 4.266 2.133 2.133 0 010-4.266z" fill="#fff"/></svg><svg viewBox="0 0 31 31" id="logo-img" xmlns="http://www.w3.org/2000/svg"><path d="M19.482 30.292c-.26-.283 1.734-2.137-.347-.793.852-1.358.65-.014 1.098-1.755.52.68.477-.311 1.156-.962.03-.51.16 1.302.232-.113.838-.17.722.34 3.642-.227.419.127.867-.028.939.779.217-.623 1.676-.496-.477-1.628 1.315-.963 1.402 2.321 1.56-1.586-.534.085 2.299-1.57.232-2.038.318-.75 3.859-1.614.231-1.642-3.382-2.28 3.801-1.444 2.66.51.173-.1.245.17.462-.453.867-1.416-2.963-.821-.174-2.209-1.112.114-.737 1.034-2.716.736-1.417-1.543-.477.298.578-1.075-.044-.397-.535.849-.81.226-.679-1.047 1.893-1.175 1.156-1.302-3.584 1.104-.664-.651-2.832-.85.462.213-.708-.453-.867-2.151-.795-.326-1.301.722-.694-1.982.087-1.019 2.63.736 2.428.453-.202-.226-.506-.92-.81-.51-.13.057.102-.75-.52-2.434-1.43-.24-.578-1.147-.23-1.529.982-.948-.536-.368-1.042-1.699-.216-.056-.765.991-1.734-.283.072-.127 0-.976-2.254-2.491.549-1.486-.91-.283-1.908-1.585-.882 1.104-3.54-.61-4.162-1.699.376.538-6.46-.297-1.792 1.472-2.053 4.473-5.998 1.373-7.226 5.549-.68-.41 1.098.481-.81.396.896.807-.693-.17-.058.623-1.069 1.458-2.47.75-2.6 2.378-.854.198-.666.609-.521.34.347-.453.737 1.585.578.283.954-.51-1.388 1.486-.636 2.152.145.65.535-.467 1.098.396-.144.75-3.295-.58-.867.85 1.691.098-1.33-.907 3.295-.114.81.1-.26 1.741-.578.397.188-.27-2.269-.029-2.139.396-.115-.156-.014.439-.289.113.708-.17-1.517-.17.058.34-.188.538-1.286-.255-1.156.623-.491-.199 3.425.58.636 1.132-.896.58-.91-.17-1.272-.34.101.467.275 4.36 1.792 2.378.202-.637.347-.438 1.04-1.642-.158 1.204-1.878-3.071 1.62-2.151 1.575.594-2.588.906-1.041.736.795-.17 2.37.127.578 1.132.968.623-.78 2.223-.578 2.095.26 1.529-.607.397-1.214 1.472.621.694-1.301 1.458.867 3.567.115-.594 1.647-.155.983-.679 1.806 1.302.664-2.463 1.445-.453-.044.283.144.07.231-.283.463-.156-.723-.793.231-1.19.174.128.593-.07.29-.226.549-.467 1.98-1.543.866-2.717-.086.155.058-1.5.925-.397-.043.014-.534-1.132.405-.906.188 1.147 2.573-.623 3.006.85.304.042.723.396.694.453.072-.963 3.02.707.983 1.019 1.33.382-.246 1.118 1.33.623.765.495-1.822 1.26-1.504 2.434.29 1.175-.52-.113-.462.85.23-.68.072 2.264-1.33 1.415.68 1.458-.766-.226-.231.736.289.057.462 2.76-.752.113.232 1.36-.448-.113-.578.907 2.688.835-1.416.438-2.601.962.274.906 3.324 1.968 4.856 2.322 1.373.467 5.723 1.118 7.63-.114zm6.995-3.68c-.03-.014.057.07-.058.057 0-.015-.16-.085.058-.057zm2.138-6.059c-.028.015.073 0 .058.114-.043-.015-.072.056-.058-.114zm-.751-.113c-.058 0-.058 0 0 0 .029 0 .202.142 0 0zm2.832.227c0 .113-.332.042-.115-.057-.043-.028.087-.085.116.057zm-3.179-3.001c.043-.1.159.495 0 .283.015.014-.275-.24 0-.283zm-.289-.227c-.087-.184.448.071.058.113.086.043-.188-.099-.058-.113zm-.29.85c0 .113 0 .113 0 0 0-.1.348.141 0 0zm-1.733-4.02h-.058.058zm.925 8.662c-.217.142-.42-.297.057 0h-.057zm.578 1.303c.332.453-.954.467-.116-.057-.043-.028.087-.085.116.057zm0-6.285c.202-.043-.015-.113.058.056.028.043-.073.199-.058-.056zm-.116-1.246c-.014-.184.13-.297 0 .057v-.057zm-.058 2.208c.145-.325.318.397.058.227-.072.085-.231-.113-.058-.227zm-.173-2.66c.043.013.116-.043.058.112.029-.056-.044 0-.058-.113zm-.694.396c.043-.029.072.028.174.056-.03-.014-.145.17-.174-.056zm-.751-2.492l.057.057c.073-.028-.216.056-.057-.057zm-.29.227c-.057 0-.057 0 0 0 .087.014.145.368 0 0zm-.057.962c-.03.014.072 0 .058.114-.044-.015-.073.056-.058-.114zm-.347 3.85c.101-2.703.173 3.497 2.717 3.115-.954 1.6-3.078-.807-2.717-3.114zm1.56-9.512c.044.014.073-.056.059.113-.044-.014-.073.057-.058-.113zm-.173 1.529c0 .283 0 .283 0 0 .145-.142.463.311 0 0zm-.751-1.982c0 .057 0 .057 0 0-.015-.028.159.043 0 0zm-.752 3.567c-.014-.028.073.057.058-.056.029.014-.029.226-.058.056zM20.58 27.744c.058-.056.058-.056 0 0-.043.071-.13-.198 0 0zm.116-7.927c-.102-.127.043-1.132.173-.34-.072.241.145.326-.173.34zm.23-1.528c0 .056 0 .056 0 0-.014-.029.16.042 0 0zm-.057-.34c-.043.085.101-.184.116-.057-.015-.014 0 .071-.116.057zm.173.736c-.072-.184.376-.396.116.17.043.141-.665.056-.116-.17zm.116-.396c.058.056.058.056 0 0-.014-.085.246-.17 0 0zm-.173 8.946c-.03.141-.448.056-.058-.057.014 0 .087-.269.058.057zm.057-7.587c-.043-.015-.072.056-.057-.114.043.014.072-.056.057.114zm0-.567c-.043-.014.203-.127.058.057-.029.014.058-.07-.058-.057zm.174.51c.058 0 .058 0 0 0-.116.184-.203-.198 0 0zm.058-.34c0-.056 0-.056 0 0 .029.227-.463-.028 0 0zm.057-.17c0-.056 0-.056 0 0 .044.014-.144-.07 0 0zm.232-.283c.1.368-.506.255-.058-.17.13-.014-.058 0 .058.17zm0-.34c-.058.227-.434.043-.174-.226.058-.028.275.17.174.226zm0-.51c.159.44-.578-.056-.058-.112.014.028-.029.056.058.113zm.23.794c0-.057 0-.057 0 0 .088.155-.346-.015 0 0zm.232-2.265c-.043-.014-.072.056-.058-.114.044.015.073-.056.058.114zm-.115-1.133c.057 0 .057 0 0 0-.03.043.057-.297 0 0zm.982 1.586c-.072-.029 0 .085-.173.056.043.085.173-.34.173-.056zm.578-2.605c.116-.042-.823 1.614-1.618.397.795.07.679-1.02 1.618-.397zm-.636-6.002c0 .057-.115.184-.23.227.072 0 0-.213.23-.227zm-.057-1.076c-.116.1-.333-.31.057-.17 0 .057.03.029-.057.17zm.751 5.832c.145.128.058 0 .116-.113.014 0-.015.382-.116.114zM23.355 7.7c0 .114 0 .114 0 0 .072-.254.159.114 0 0zm-.116 5.776c.13-.496.81.453.694.566-.78-.085-1.2-.198-.694-.566zm-.694-7.021c.044-.354.636.552.52.396-.187-.127-.635.538-.52-.396zm-.925.906c.102.368 1.099-.44 1.041.85-.274.254-1.272-.1-1.04-.85zm-.751-.793c.405-.198.882 1.048.289.566.101-.141-.506-.368-.289-.566zm-.116 11.777c.044.043.405.085.058.34-.014-.043-.072-.142-.058-.34zm-.057-.056c-.03-.015-.058.028-.116-.057 0-.014.173-.283.116.057zm-.174-10.645c-.058.056-.058.056 0 0 .044-.043.145.184 0 0zm0 11.494c-.029-.043.087-.113.058.056-.029.015.058-.07-.058-.056zm-.115.623c-.087-.156.404-.496.173-.227-.029-.085-.014.425-.173.227zm-.058 7.927c-.087.028.245.056.058.113.057.014-.203-.113-.058-.113zm-.232-24.404c-.028.014.073 0 .058.113-.043-.014-.072.057-.058-.113zm0 3.794c-.014-.029.073.056.058-.057.03.014-.029.226-.058.057zM1.793 10.645c0-.057 0-.057 0 0 .015.028-.159-.043 0 0zm0-.114h.116-.116zm.29 3.511c-.044.156-.348-.057-.059-.113-.029.014.073 0 .058.113zm-.695 3.964c0 .056 0 .056 0 0 .073-.071.188.198 0 0zm.232 1.472c-.13.155-.434-.213-.058-.34 0-.043-.015.17.058.34zm0-.623c.144.665-1.633-.156-.174-.283-.072.042.217-.071.174.283zm.289.056c-.174 0-.174 0 0 0-.015.114-.275.326 0 0zm.115-.849c-.115.113-.361-.311-.115-.113.029 0 .419.226.115.113zm.232.396c0-.113 0-.113 0 0 .086.043-.506-.056 0 0zm.173-.396c0 .156-.347-.042-.173-.113.072-.014-.044.141.173.113zm-.116-.566c.03-.043-.072.127.058.113 0 .255-.289.142-.058-.113zm-.115 4.813c0-.057 0-.057 0 0 .072.014-.275-.085 0 0zm7.11-7.588c1.07.213.101.482-.578 1.133-.636.127-.621-.552-1.04-.453.505-.609.794-.68 1.618-.68zm-1.734-.17c-.202-.127.636-.537.578-.113-.159.156-.275.41-.578.114zm-.231.34c-.29 0 .159-.722.115-.283-.072-.099.16.27-.115.283zm.058.34c.028.184-.477.198-.232 0-.029-.085.044-.07.232 0zm.057-1.982c-.274 0-.144-.34.29-.113-.058.057-.015 0-.29.113zm.058-1.415c.116 0 .116 0 0 0-.029-.043.174-.368 0 0zm.231 1.755c.03 0-.187.453-.173.113.029-.028-.058-.141.173-.113zm1.099.68c.086-.015.289-.184.289 0 .072.014-.145.17-.29 0zm-.116-.85c-.13 1.09-1.72.496-.462.113.318.213.043-.226.462-.113zm-.52-1.302c.043-.198-.043 1.047-.174.34-.216.325-.505-.552.174-.34zm-.231 1.472H7.92c.014-.014-.03-.113.058 0zM8.44 12.4c-.043-.326.347.184.058.396-.16.029-.304-.085-.058-.396zm-.058-.34c0-.113 0-.113 0 0 .101.071-.621-.113 0 0zm-.867-1.642c0 .057 0 .057 0 0-.043 0 .16.184 0 0zm-.058.114c.275.297.448-1.232.694.962-.376.41-.491-.396-.694-.963zm-.289.226c-.072-.41.578.425.058.17.029 0-.058-.029-.058-.17zm0 .283c.969 1.118-1.618.34.058 1.529-2.095.722-1.055-1.996-.058-1.529zm-.347 2.548c-.086-.156.232.156.058.17 0-.057.03-.028-.058-.17zm.058-.34c-.043.156-.982.17-.231-.17-.159.17.564-.155.231.17zm-.058.736c0 .27-.433.128-.867.114-.766-.326.68-1.119.867-.114zm-.52.623c.03.128-.419-.028-.058-.056.03-.015-.057.07.058.056zm-.925.114c-.058-.27.55-.85.636-.114-.087.1-.376.27-.636.114zm0-.397c-.058 0-.058 0 0 0 .03.014-.086.24 0 0zm-.058-.34c.058.057.058.057 0 0-.043-.028.203.043 0 0zm.636.34c-.058-.085-.014-.311.116 0-.072-.056-.015.128-.116 0zm.232-1.415c.144.113-.52.212-.174-.114.015-.014.072.1.174.114zm.578-7.814c0 .057 0 .057 0 0-.015-.028.159.042 0 0zM5.029 8.889c-.13-.99 2.356.029 1.792 1.076-1.156.524-.664 1.713-1.792-1.075zm-3.295 2.888c-.014-.113.217-.184.058.057.015-.028-.072.056-.058-.057zm-.058.68c0 .056 0 .056 0 0-.028-.199.39.042 0 0zm.232.51c0-.057 0-.057 0 0-.058.027-.188-.043 0 0zm0-.114c0-.057 0-.057 0 0 .014.07-.593-.057 0 0zm.347-.113c-.102.07-.13-.156-.058 0-.015.042.072-.142.058 0zm.693.283c0-.057 0-.057 0 0-.014.085-.26-.057 0 0zm1.503 1.019c0-.057 0-.057 0 0 .015.028-.404-.085 0 0zm0 3.964c-.375-.213.636-1.982.405-.227-.029-.043-.26.382-.405.227zm.52 5.605c.102.311-.751-.326-.288-.566.043-.071.635-.27.289.566zm.232.057c.029.056.159.07-.058.17-.072.028-.246.098.058-.17zm-.116-9.74c-1.127.34-3.18-.806-.289-.792.361.467 0 .184.29.793zm.058-1.415c.029.142-1.113.029-.116-.34.13.071.246-.084.116.34zm.058-1.812c-.145.043-.434.453-.347.85-.318.198-1.546-.071.173.396-1.286.467-2.601.99-2.89.283-1.012 1.685 1.373-5.308 1.503-2.208-.78.906 2.645-2.01 1.56.68zm.462 12.4c-.058.057-.058.057 0 0 .03-.028-.043.241 0 0zm-.173-.34c-.087-.056.26-.127.058.057.043.029-.203-.042-.058-.056zm.751-.849c.015.029-.347-.042-.173-.17.029-.014.159.057.173.17zm-.115-6.568c.289 1.33-.983 2.959-.694.283-.564-.891.578-.17 1.387-1.302.405-.255-.028 1.147-.693 1.02zm.693-.056c.015.056 0 .07-.23.056.086.029-.03-.056.23-.056zm-.346 1.811c-.174.015-.246-.141.057 0h-.057zm1.214.85c0-.057 0-.057 0 0-.015.099-.29-.014 0 0zm3.757-.566c-.13 1.075-2.558-.34-4.393-.397-.665.651-.839-2.66.404-1.132-.664.934.752-1.034.81.453-.073-.425 1.734-.892.578.056.029-.424 1.907.58.81.057-.42-.878-.073-.665.288-1.132.231-.029 1.142.68 1.503 2.095zm2.602 3c.028.1-.102.213 0-.056v.057zm-1.272 4.53c-.376.029-.03-.594 0-.113-.044 0 .144.014 0 .113zm.115-.906c-.028-.07.058.142-.115.227-.044.297.1-.864.115-.227zm.29-1.019c.057-.113.057-.113 0 0-.102.057.173-.566 0 0zm.115.17c.029-.014-.043.156-.058 0-.043.014.217-.156.058 0zm.347-1.246c-.116.1-.072-.325.173-.17-.014.057.044.085-.173.17zm.462 5.889c-.086.113-.072.014-.289.113.044.057.217-.325.29-.113zM16.13 2.774c.014.397-1.576.199-.347-.113-.043.128.303-.24.347.113zm3.18 22.422c0-.056 0-.056 0 0 .071.1-.174-.014 0 0zm.288-3.34c-.029.127-.376.056-.058 0-.014.042.073-.142.058 0zm-.115-1.02c.043.015.1-.042 0 .114-.058.042-.217.155 0-.113zm-.232 1.246c.015-.028 0 .071.116.057.014-.029-.13.07-.116-.057zm-.925-19.93c.03-.298.55.085.232.17.058-.015-.13.028-.232-.17zm-.404 19.477c.39-.283.332-.297.983-.34.433.524-.52 1.034-.983.34zm-.405 1.472c-.014-.028-.39-.269-.231-.396 0 .156.13.113.231.396zm.983-.17c.173.935-.838 1.374-.52-.17-.203-.183-.232 1.133-.81-.679.434-.368.52 1.076.578-.34.318.425.853.184.752 1.19zm.578.17c.072.184-.694-.396-.347-.622-.014 0 1.142.566.347.622z"/></svg><svg fill="none" viewBox="0 0 82 20" id="logo-text" xmlns="http://www.w3.org/2000/svg"><path d="M0 20V0h3.777l6.662 15.175L16.963 0h3.64v20h-3.365V6.07L11.908 20H8.806L3.365 6.07V20H0zm24.724 0V0h8.791c4.01 0 6.016 1.879 6.016 5.636 0 4.075-2.742 6.541-8.227 7.399l-.522-3.3c3.296-.607 4.944-1.935 4.944-3.987 0-1.66-.815-2.49-2.444-2.49h-4.918V20h-3.64zm40.012 0H61l8.338-20h3.914l8.516 20h-3.914l-2.24-5.454H69.09l1.25-3.217h3.956l-3.09-7.51L64.736 20zM43 20V0h15v20h-3V3.259h-8.635V20H43z" fill="#fff"/></svg><svg fill="none" viewBox="0 0 21 26" id="pdf" xmlns="http://www.w3.org/2000/svg"><path d="M12.98 25.423a.57.57 0 01-.572-.578v-6.927a.57.57 0 01.572-.577h6.874a.57.57 0 01.573.577.57.57 0 01-.573.578h-6.3v6.35a.584.584 0 01-.574.577z" fill="#fff"/><path d="M12.98 26H1.146C.516 26 0 25.48 0 24.846v-6.928c0-.635.516-1.154 1.146-1.154.63 0 1.145.52 1.145 1.154v5.773h10.22l6.198-6.246V2.309H1.146a1.154 1.154 0 010-2.309h18.708C20.484 0 21 .52 21 1.155V17.93c0 .312-.126.6-.332.82l-6.874 6.927a1.244 1.244 0 01-.814.323z" fill="#fff"/><path d="M5.316 6.754v1.362c0 1.686-.802 2.598-2.44 2.598h-.78v3.948H.458V4.156h2.417c1.627 0 2.44.912 2.44 2.598zm-3.22-1.097v3.556h.78c.526 0 .801-.242.801-.993V6.64c0-.75-.286-.993-.802-.993h-.779v.011zm3.976-1.501h2.59c1.637 0 2.44.912 2.44 2.598v5.31c0 1.687-.803 2.598-2.44 2.598h-2.59V4.156zM7.71 5.657v7.505h.928c.527 0 .837-.266.837-1.016V6.685c0-.75-.31-1.016-.837-1.016H7.71v-.012zm5.928 3.007h2.12v1.501h-2.12v4.341H12V4h4.33v1.5h-2.692v3.164z" fill="#fff"/></svg><svg fill="none" viewBox="0 0 66 78" id="play" xmlns="http://www.w3.org/2000/svg"><path d="M55.538 35.127l-14.533-9.43c-3.331-2.021-8.479-5.39-11.81-7.41L14.36 8.857C11.029 6.836 8 8.519 8 12.561v52.877c0 4.043 3.029 5.726 6.36 3.706l14.534-9.43c3.33-2.022 8.478-5.39 11.809-7.41l14.534-9.43c3.633-2.358 3.633-5.726.303-7.747z" fill="#fff"/></svg><svg fill="none" viewBox="0 0 24 24" id="ru" xmlns="http://www.w3.org/2000/svg"><path d="M12.027 24c4.833 0 9.007-2.856 10.93-7.03H1.152A11.883 11.883 0 0012.027 24z" fill="red"/><path d="M12.027 0C7.196 0 3.021 2.856 1.098 7.03h21.804A11.883 11.883 0 0012.027 0z" fill="#fff"/><path d="M0 11.973c0 1.812.384 3.46 1.098 4.997h21.804A11.863 11.863 0 0024 11.973c0-1.813-.384-3.46-1.098-4.998H1.098C.44 8.513 0 10.215 0 11.973z" fill="#005CE6"/></svg><svg fill="none" viewBox="0 0 24 24" id="telegram" xmlns="http://www.w3.org/2000/svg"><path fill-rule="evenodd" clip-rule="evenodd" d="M0 12c0 6.627 5.373 12 12 12s12-5.373 12-12S18.627 0 12 0 0 5.373 0 12zm9.8 5.5l.204-3.059 5.564-5.021c.245-.217-.053-.323-.377-.126l-6.867 4.332-2.967-.926c-.64-.196-.645-.636.144-.952l11.56-4.458c.527-.24 1.037.127.835.935l-1.968 9.277c-.138.659-.536.816-1.088.512l-2.999-2.215L10.4 17.2a1.72 1.72 0 00-.014.013c-.16.157-.294.287-.586.287z" fill="#fff"/></svg><svg fill="none" viewBox="0 0 24 24" id="twitter" xmlns="http://www.w3.org/2000/svg"><path fill-rule="evenodd" clip-rule="evenodd" d="M12 0C5.373 0 0 5.373 0 12s5.373 12 12 12 12-5.373 12-12S18.627 0 12 0zm-.334 10.169l-.025-.415c-.076-1.076.587-2.06 1.636-2.44.387-.136 1.041-.153 1.47-.035.167.051.486.22.713.373l.411.28.453-.144c.252-.077.588-.204.739-.288.143-.077.269-.119.269-.094 0 .144-.311.636-.571.907-.353.381-.252.415.461.161.428-.144.437-.144.353.017-.05.085-.31.381-.588.653-.47.466-.495.517-.495.906 0 .602-.285 1.856-.57 2.542-.53 1.289-1.663 2.619-2.796 3.288-1.595.941-3.718 1.178-5.506.627-.596-.186-1.62-.66-1.62-.745 0-.026.31-.06.688-.068a4.724 4.724 0 002.25-.627l.453-.271-.52-.178c-.739-.254-1.402-.84-1.57-1.39-.05-.178-.034-.186.437-.186l.486-.009-.411-.195c-.487-.245-.932-.66-1.15-1.084-.16-.306-.36-1.077-.302-1.136.017-.025.193.025.394.093.58.212.655.161.32-.195-.63-.644-.823-1.601-.521-2.508l.143-.407.554.551c1.133 1.11 2.467 1.771 3.995 1.966l.42.051z" fill="#fff"/></svg><svg fill="none" viewBox="0 0 24 24" id="vk" xmlns="http://www.w3.org/2000/svg"><path fill-rule="evenodd" clip-rule="evenodd" d="M12 0C5.373 0 0 5.373 0 12s5.373 12 12 12 12-5.373 12-12S18.627 0 12 0zm.977 15.788c-.118.125-.35.15-.35.15h-.764s-1.688.1-3.175-1.42c-1.621-1.657-3.053-4.945-3.053-4.945s-.083-.216.007-.32c.1-.117.375-.125.375-.125l1.829-.011s.172.027.295.117c.103.073.16.21.16.21s.295.734.686 1.398c.765 1.296 1.12 1.58 1.38 1.44.378-.202.264-1.832.264-1.832s.007-.59-.19-.854c-.153-.204-.44-.264-.568-.28-.103-.014.066-.249.285-.354.33-.158.91-.167 1.597-.16.535.005.69.038.898.087.486.115.47.484.438 1.279-.01.238-.021.514-.021.832 0 .072-.002.148-.005.227-.01.407-.024.874.25 1.047.14.089.482.013 1.34-1.415.406-.677.71-1.473.71-1.473s.067-.142.17-.203c.106-.062.249-.043.249-.043l1.924-.012s.579-.068.672.19c.098.268-.216.896-1.002 1.925-.746.976-1.11 1.335-1.076 1.653.024.232.26.442.713.854.945.862 1.199 1.315 1.26 1.424l.011.02c.424.69-.47.744-.47.744l-1.71.023s-.367.072-.85-.254c-.253-.17-.5-.449-.736-.714-.36-.405-.693-.78-.976-.69-.477.148-.462 1.155-.462 1.155s.003.216-.105.33z" fill="#fff"/></svg><svg fill="none" viewBox="0 0 24 24" id="youtube" xmlns="http://www.w3.org/2000/svg"><path fill-rule="evenodd" clip-rule="evenodd" d="M12 0C5.373 0 0 5.373 0 12s5.373 12 12 12 12-5.373 12-12S18.627 0 12 0zm5 7.875c.552.15.985.596 1.133 1.162.267 1.024.267 3.163.267 3.163s0 2.138-.267 3.163A1.625 1.625 0 0117 16.525c-.997.275-5 .275-5 .275s-4.003 0-5-.275a1.625 1.625 0 01-1.133-1.162C5.6 14.338 5.6 12.2 5.6 12.2s0-2.138.267-3.163A1.623 1.623 0 017 7.875c.997-.275 5-.275 5-.275s4.003 0 5 .275z" fill="#fff"/><path d="M10.8 14.4v-4l3.2 2-3.2 2z" fill="#fff"/></svg></svg>